name analog
datacolumns 19
datarows 46
range 0.5025000000000001 0.525
endheader
time	ground_force_vx	ground_force_vy	ground_force_vz	ground_force_px	ground_force_py	ground_force_pz	l_ground_force_vx	l_ground_force_vy	l_ground_force_vz	l_ground_force_px	l_ground_force_py	l_ground_force_pz	ground_torque_x	ground_torque_y	ground_torque_z	l_ground_torque_x	l_ground_torque_y	l_ground_torque_z
0.5025000000000001	-0.0	-0.0	-0.0	-0.0	-0.0	-0.0	-4.820868492126465	-10.797021865844728	-742.7772827148438	-0.0	-0.0	-0.0	-0.0	-0.0	-0.0	187873.328125	30297.353515625	-2359.91064453125
0.503	-0.0	-0.0	-0.0	-0.0	-0.0	-0.0	-4.745474338531494	-10.278298377990724	-744.6099853515625	-0.0	-0.0	-0.0	-0.0	-0.0	-0.0	188620.0625	30299.62890625	-2334.427978515625
0.5035000000000001	-0.0	-0.0	-0.0	-0.0	-0.0	-0.0	-4.596343040466309	-9.969406127929688	-746.8682250976562	-0.0	-0.0	-0.0	-0.0	-0.0	-0.0	189305.515625	30139.71484375	-2345.626953125
0.504	-0.0	-0.0	-0.0	-0.0	-0.0	-0.0	-4.546425342559815	-9.925119400024414	-749.7819213867188	-0.0	-0.0	-0.0	-0.0	-0.0	-0.0	189837.546875	30177.7109375	-2367.742431640625
0.5045000000000001	-0.0	-0.0	-0.0	-0.0	-0.0	-0.0	-4.604753017425537	-9.756744384765623	-751.3196411132812	-0.0	-0.0	-0.0	-0.0	-0.0	-0.0	190615.109375	30269.470703125	-2317.632568359375
0.505	-0.0	-0.0	-0.0	-0.0	-0.0	-0.0	-4.512802600860596	-9.141770362854004	-753.1199951171875	-0.0	-0.0	-0.0	-0.0	-0.0	-0.0	190692.078125	30561.611328125	-2323.154541015625
0.5055000000000001	-0.0	-0.0	-0.0	-0.0	-0.0	-0.0	-4.690423965454102	-9.061888694763184	-753.927490234375	-0.0	-0.0	-0.0	-0.0	-0.0	-0.0	191308.390625	30541.255859375	-2376.712890625
0.506	-0.0	-0.0	-0.0	-0.0	-0.0	-0.0	-5.194521427154541	-8.716327667236328	-754.0391845703125	-0.0	-0.0	-0.0	-0.0	-0.0	-0.0	191353.734375	30400.82421875	-2452.893310546875
0.5065000000000001	-0.0	-0.0	-0.0	-0.0	-0.0	-0.0	-5.66615104675293	-8.338056564331055	-756.3401489257812	-0.0	-0.0	-0.0	-0.0	-0.0	-0.0	191584.28125	30464.396484375	-2584.923583984375
0.507	-0.0	-0.0	-0.0	-0.0	-0.0	-0.0	-6.065957546234131	-7.717463493347168	-758.3572998046875	-0.0	-0.0	-0.0	-0.0	-0.0	-0.0	192433.921875	30435.62109375	-2832.4921875
0.5075000000000001	-0.0	-0.0	-0.0	-0.0	-0.0	-0.0	-6.376615047454834	-7.413732528686523	-761.0457153320312	-0.0	-0.0	-0.0	-0.0	-0.0	-0.0	192740.640625	30358.13671875	-2923.71923828125
0.508	-0.0	-0.0	-0.0	-0.0	-0.0	-0.0	-5.979208946228027	-7.336944580078125	-763.3529663085938	-0.0	-0.0	-0.0	-0.0	-0.0	-0.0	193409.03125	30378.69140625	-2861.654052734375
0.5085000000000001	-0.0	-0.0	-0.0	-0.0	-0.0	-0.0	-5.829753398895264	-7.235080242156982	-764.4506225585938	-0.0	-0.0	-0.0	-0.0	-0.0	-0.0	193896.234375	30052.849609375	-2860.056884765625
0.509	-0.0	-0.0	-0.0	-0.0	-0.0	-0.0	-5.453178882598877	-7.099486351013184	-763.994873046875	-0.0	-0.0	-0.0	-0.0	-0.0	-0.0	194193.359375	30178.017578125	-2869.10888671875
0.5095000000000001	-0.0	-0.0	-0.0	-0.0	-0.0	-0.0	-5.09891939163208	-6.767004489898682	-764.8679809570312	-0.0	-0.0	-0.0	-0.0	-0.0	-0.0	194331.953125	29921.0390625	-2787.1669921875
0.51	-0.0	-0.0	-0.0	-0.0	-0.0	-0.0	-4.691278457641602	-6.287769317626953	-764.6979370117188	-0.0	-0.0	-0.0	-0.0	-0.0	-0.0	194199.578125	29683.1171875	-2734.04443359375
0.5105000000000001	-0.0	-0.0	-0.0	-0.0	-0.0	-0.0	-4.534327507019043	-5.824069023132324	-764.0045776367188	-0.0	-0.0	-0.0	-0.0	-0.0	-0.0	194076.0625	29686.212890625	-2728.676025390625
0.511	-0.0	-0.0	-0.0	-0.0	-0.0	-0.0	-4.40144681930542	-5.353679656982422	-762.6539306640625	-0.0	-0.0	-0.0	-0.0	-0.0	-0.0	194004.640625	29474.90234375	-2813.500732421875
0.5115000000000001	-0.0	-0.0	-0.0	-0.0	-0.0	-0.0	-4.435556411743164	-4.764287948608398	-761.828857421875	-0.0	-0.0	-0.0	-0.0	-0.0	-0.0	193896.609375	29572.525390625	-2765.45703125
0.512	-0.0	-0.0	-0.0	-0.0	-0.0	-0.0	-4.060376167297363	-3.95746111869812	-759.9830322265625	-0.0	-0.0	-0.0	-0.0	-0.0	-0.0	193641.109375	29553.66796875	-2772.814208984375
0.5125	-0.0	-0.0	-0.0	-0.0	-0.0	-0.0	-4.222322940826416	-3.0029373168945312	-759.9899291992188	-0.0	-0.0	-0.0	-0.0	-0.0	-0.0	193675.828125	29522.279296875	-2784.267822265625
0.513	-0.0	-0.0	-0.0	-0.0	-0.0	-0.0	-4.489920139312744	-2.039867162704468	-758.4362182617188	-0.0	-0.0	-0.0	-0.0	-0.0	-0.0	193569.234375	29745.484375	-2938.52099609375
0.5135	-0.0	-0.0	-0.0	-0.0	-0.0	-0.0	-4.916243553161621	-0.7079242467880249	-757.865234375	-0.0	-0.0	-0.0	-0.0	-0.0	-0.0	193661.796875	29795.923828125	-3087.09423828125
0.514	-0.0	-0.0	-0.0	-0.0	-0.0	-0.0	-5.578884601593018	0.4047277271747589	-757.2030639648438	-0.0	-0.0	-0.0	-0.0	-0.0	-0.0	193555.75	30178.580078125	-3206.705810546875
0.5145	-0.0	-0.0	-0.0	-0.0	-0.0	-0.0	-6.241847991943359	0.8954935669898987	-754.4874267578125	-0.0	-0.0	-0.0	-0.0	-0.0	-0.0	193015.171875	30204.27734375	-3291.9892578125
0.515	-0.0	-0.0	-0.0	-0.0	-0.0	-0.0	-6.854888439178467	0.8488007187843323	-752.2857055664062	-0.0	-0.0	-0.0	-0.0	-0.0	-0.0	192517.421875	30109.93359375	-3368.255126953125
0.5155	-0.0	-0.0	-0.0	-0.0	-0.0	-0.0	-7.131500244140625	1.2375705242156982	-748.4131469726562	-0.0	-0.0	-0.0	-0.0	-0.0	-0.0	191827.4375	30248.236328125	-3462.076171875
0.516	-0.0	-0.0	-0.0	-0.0	-0.0	-0.0	-7.683088302612305	0.8908731937408447	-744.838623046875	-0.0	-0.0	-0.0	-0.0	-0.0	-0.0	191077.6875	30136.46484375	-3607.541015625
0.5165	-0.0	-0.0	-0.0	-0.0	-0.0	-0.0	-8.40815258026123	0.2160067856311798	-740.945556640625	-0.0	-0.0	-0.0	-0.0	-0.0	-0.0	190050.953125	30210.7265625	-3628.2099609375
0.517	-0.0	-0.0	-0.0	-0.0	-0.0	-0.0	-8.817172050476074	-0.1073397845029831	-736.5729370117188	-0.0	-0.0	-0.0	-0.0	-0.0	-0.0	189060.5625	30273.07421875	-3649.72412109375
0.5175	-0.0	-0.0	-0.0	-0.0	-0.0	-0.0	-8.745977401733398	-0.1190440878272056	-731.2918701171875	-0.0	-0.0	-0.0	-0.0	-0.0	-0.0	187826.21875	30326.71484375	-3708.402099609375
0.518	-0.0	-0.0	-0.0	-0.0	-0.0	-0.0	-8.844157218933105	0.2287921756505966	-727.0711669921875	-0.0	-0.0	-0.0	-0.0	-0.0	-0.0	187193.921875	30176.9609375	-3761.90185546875
0.5185	-0.0	-0.0	-0.0	-0.0	-0.0	-0.0	-8.903861999511719	0.6589498519897461	-723.111328125	-0.0	-0.0	-0.0	-0.0	-0.0	-0.0	186141.5625	30108.83203125	-3667.6865234375
0.519	-0.0	-0.0	-0.0	-0.0	-0.0	-0.0	-8.502042770385742	0.7087820768356323	-718.9031982421875	-0.0	-0.0	-0.0	-0.0	-0.0	-0.0	185360.046875	29741.5625	-3600.703125
0.5195	-0.0	-0.0	-0.0	-0.0	-0.0	-0.0	-7.610679626464844	0.3611004054546356	-713.857177734375	-0.0	-0.0	-0.0	-0.0	-0.0	-0.0	184334.515625	29766.146484375	-3552.94970703125
0.52	-0.0	-0.0	-0.0	-0.0	-0.0	-0.0	-7.300192356109619	-0.6897876858711243	-705.626220703125	-0.0	-0.0	-0.0	-0.0	-0.0	-0.0	183215.078125	29611.9375	-3490.891845703125
0.5205	-0.0	-0.0	-0.0	-0.0	-0.0	-0.0	-7.177786827087402	-2.614593505859375	-696.51611328125	-0.0	-0.0	-0.0	-0.0	-0.0	-0.0	181549.234375	29404.21875	-3526.95849609375
0.521	-0.0	-0.0	-0.0	-0.0	-0.0	-0.0	-6.616995811462402	-5.741940975189209	-687.5469360351562	-0.0	-0.0	-0.0	-0.0	-0.0	-0.0	179289.0625	29150.6796875	-3660.912841796875
0.5215	-0.0	-0.0	-0.0	-0.0	-0.0	-0.0	-6.049524307250977	-8.108723640441895	-673.3845825195312	-0.0	-0.0	-0.0	-0.0	-0.0	-0.0	176905.453125	28712.7578125	-3711.49267578125
0.522	-0.0	-0.0	-0.0	-0.0	-0.0	-0.0	-5.677490234375	-10.660557746887209	-661.2911376953125	-0.0	-0.0	-0.0	-0.0	-0.0	-0.0	174519.546875	28166.732421875	-3818.574462890625
0.5225	-0.0	-0.0	-0.0	-0.0	-0.0	-0.0	-5.198479652404785	-12.510879516601562	-649.0376586914062	-0.0	-0.0	-0.0	-0.0	-0.0	-0.0	172639.421875	27442.361328125	-3885.46337890625
0.523	-0.0	-0.0	-0.0	-0.0	-0.0	-0.0	-4.311468124389648	-12.559590339660645	-638.45849609375	-0.0	-0.0	-0.0	-0.0	-0.0	-0.0	170878.78125	26520.166015625	-4022.72607421875
0.5235	-0.0	-0.0	-0.0	-0.0	-0.0	-0.0	-3.5836434364318848	-10.687424659729004	-630.1146240234375	-0.0	-0.0	-0.0	-0.0	-0.0	-0.0	170188.46875	25246.990234375	-4014.429443359375
0.524	-0.0	-0.0	-0.0	-0.0	-0.0	-0.0	-2.4748220443725586	-7.525843620300293	-627.1104125976562	-0.0	-0.0	-0.0	-0.0	-0.0	-0.0	170809.765625	24216.3046875	-3999.447998046875
0.5245	-0.0	-0.0	-0.0	-0.0	-0.0	-0.0	-0.7803021669387817	-2.734898567199707	-627.6663208007812	-0.0	-0.0	-0.0	-0.0	-0.0	-0.0	172710.609375	22922.138671875	-3716.83984375
0.525	-0.0	-0.0	-0.0	-0.0	-0.0	-0.0	1.5596976280212402	4.379150390625	-632.0321655273438	-0.0	-0.0	-0.0	-0.0	-0.0	-0.0	176010.03125	21723.61328125	-3539.754638671875
